<?xml version="1.0" encoding="UTF-8"?>
<svg version="1.1" xmlns="http://www.w3.org/2000/svg" width="1455" height="423">
<path d="M0 0 C0.86012695 0.18804199 1.72025391 0.37608398 2.60644531 0.56982422 C22.18433221 4.9975687 40.04362914 12.75761202 56 25 C56.8146875 25.60585938 57.629375 26.21171875 58.46875 26.8359375 C66.26755786 32.73845989 73.47516511 38.81726977 79.296875 46.7265625 C80.59254704 48.45610637 81.96566207 50.12793148 83.37109375 51.76953125 C91.27544671 61.20960405 97.11537996 72.30225845 101.5 83.75 C101.97046753 84.97021851 101.97046753 84.97021851 102.45043945 86.21508789 C106.9800095 98.67233396 108.51762634 110.77699643 108.44604492 123.93041992 C108.4375441 126.30020523 108.46640711 128.66756045 108.49804688 131.03710938 C108.56235166 145.09954571 106.17041915 158.10261978 100.34375 170.99609375 C99.57023654 172.72525612 98.82481375 174.46891537 98.16186523 176.2434082 C95.81335882 182.49822123 92.83732184 187.8128532 89.0625 193.3125 C88.55009766 194.08400391 88.03769531 194.85550781 87.50976562 195.65039062 C84.65476793 199.87665786 81.69464504 203.45590076 78 207 C77.01162115 208.31121616 76.04966233 209.64309907 75.125 211 C72.64579996 214.39695018 70.13420094 216.57599526 66.63671875 218.8671875 C64.78917942 220.06826115 64.78917942 220.06826115 62.75 222.3125 C36.87413157 247.60028051 -2.14295777 256.60191261 -37.22265625 256.21875 C-45.6403966 255.99491113 -53.76193594 254.66266278 -62 253 C-62.73057617 252.86078125 -63.46115234 252.7215625 -64.21386719 252.578125 C-74.43384344 250.60448631 -83.63252202 247.46805938 -93.00732422 242.95751953 C-95.01793541 241.99138168 -97.04107028 241.05590151 -99.06640625 240.12109375 C-131.58677991 224.81532192 -154.83291719 196.8196662 -167.25 163.3125 C-176.1185705 134.71900544 -174.03043524 101.86307698 -161 75 C-160.48050781 73.86949219 -159.96101562 72.73898438 -159.42578125 71.57421875 C-156.87236234 66.19260357 -154.07917161 61.38733393 -150.36328125 56.73046875 C-148.82252878 54.83583738 -148.82252878 54.83583738 -147.0625 51.9375 C-144.87192888 48.81759567 -142.4507326 46.35812302 -139.71875 43.71875 C-137.79991832 41.85887096 -137.79991832 41.85887096 -135.5625 39 C-125.953676 27.75064508 -112.92284343 19.89781403 -100 13 C-98.3603125 12.1028125 -98.3603125 12.1028125 -96.6875 11.1875 C-67.53947902 -3.6514925 -31.74603921 -7.08559171 0 0 Z M-108.9375 55.0625 C-109.98109036 56.35697909 -111.00112692 57.6707109 -112 59 C-112.64066406 59.82886719 -113.28132813 60.65773437 -113.94140625 61.51171875 C-116.03465565 64.29609794 -118.03287577 67.12527192 -120 70 C-120.59941406 70.86882812 -121.19882812 71.73765625 -121.81640625 72.6328125 C-135.32564121 93.84865801 -139.52591395 121.80321545 -134.921875 146.33081055 C-134.11487797 149.94480684 -133.12417084 153.47254075 -132 157 C-131.76394043 157.74685059 -131.52788086 158.49370117 -131.28466797 159.26318359 C-126.07305806 175.1668262 -117.64167633 188.01654968 -106 200 C-105.08541016 201.00740234 -105.08541016 201.00740234 -104.15234375 202.03515625 C-95.11552808 211.68593817 -84.38070285 218.51260053 -72 223 C-70.40865234 223.66128906 -70.40865234 223.66128906 -68.78515625 224.3359375 C-61.55620519 227.31003627 -54.76759355 229.16231834 -47 230 C-45.845 230.1340625 -44.69 230.268125 -43.5 230.40625 C-14.36957749 233.03276351 12.38679954 225.76345675 35 207 C35.84949219 206.31421875 36.69898438 205.6284375 37.57421875 204.921875 C57.95001086 187.64883302 69.48013437 163.37345694 72.75390625 137.08203125 C74.96369883 109.40700989 67.46637456 81.31139457 49.375 59.9375 C47.60891695 57.9194982 45.84064664 55.94598768 44 54 C43.19864624 53.1503064 43.19864624 53.1503064 42.38110352 52.28344727 C22.70564417 31.98557543 -3.81226953 22.56232892 -31.6875 21.6875 C-60.73160571 22.32147775 -89.15884536 33.27472695 -108.9375 55.0625 Z " fill="#F4F4F4" transform="translate(395,21)"/>
<path d="M0 0 C35.330625 -0.12375 35.330625 -0.12375 71.375 -0.25 C82.48422119 -0.30462402 82.48422119 -0.30462402 93.81787109 -0.36035156 C102.94067383 -0.37841797 102.94067383 -0.37841797 107.22671509 -0.3817749 C110.18688225 -0.38546512 113.14675537 -0.40030666 116.10684204 -0.42230225 C143.43375102 -0.61626802 165.77180074 0.2732237 186.4140625 20.34765625 C198.05544526 32.63145646 202.58340302 45.98808421 202.4855957 62.71313477 C202.01025317 76.77407361 197.35759345 87.4451387 188 98 C187.33742188 98.76054687 186.67484375 99.52109375 185.9921875 100.3046875 C177.032588 109.91721328 164.24082138 115.69304433 152 120 C152.804375 120.99 152.804375 120.99 153.625 122 C157.5954505 127.01530589 161.41046836 132.1229446 165.0625 137.375 C168.50961082 142.3302218 172.02950998 147.23086226 175.5625 152.125 C176.10463135 152.87700684 176.6467627 153.62901367 177.20532227 154.40380859 C179.82071565 158.02231771 182.45860461 161.61904644 185.15234375 165.1796875 C187.562047 168.37549863 189.79008526 171.66220347 192 175 C193.36140134 176.84345396 194.7369227 178.67654791 196.125 180.5 C199.59858355 185.10652388 203.01514664 189.74736829 206.375 194.4375 C206.99979248 195.30568359 206.99979248 195.30568359 207.63720703 196.19140625 C209.91446907 199.3823559 212.003276 202.62842973 214 206 C208.55587925 206.19832862 203.11387554 206.34318442 197.66699219 206.43945312 C195.81603356 206.47959284 193.96532718 206.53412078 192.11523438 206.60351562 C176.81469412 207.16289021 176.81469412 207.16289021 172.63867188 204.48681641 C171.06789428 202.40085258 170.06208702 200.38097565 169 198 C168.00459679 196.56933441 166.97735098 195.1603773 165.921875 193.7734375 C164.86379662 192.30785931 163.80652799 190.84169624 162.75 189.375 C162.18498779 188.59229736 161.61997559 187.80959473 161.0378418 187.00317383 C158.44119248 183.4027654 155.8513264 179.79798849 153.28515625 176.17578125 C148.80828434 169.85820482 144.22863311 163.65660957 139.47241211 157.54614258 C136.63195534 153.87705483 134.0108145 150.12338861 131.484375 146.234375 C127.77564954 140.65176721 123.71276094 135.30024379 119.7109375 129.92578125 C118.98132813 128.93964844 118.25171875 127.95351562 117.5 126.9375 C116.49453125 125.58978516 116.49453125 125.58978516 115.46875 124.21484375 C114 122 114 122 114 120 C86.28 120 58.56 120 30 120 C30 148.38 30 176.76 30 206 C20.1 206 10.2 206 0 206 C0 138.02 0 70.04 0 0 Z M32 25 C32 48.1 32 71.2 32 95 C50.59568953 95.08731376 50.59568953 95.08731376 69.19140625 95.14648438 C76.780175 95.16439072 84.36883475 95.18553347 91.95751953 95.22631836 C98.07833676 95.25900698 104.19903703 95.27687315 110.31993484 95.28463173 C112.65061915 95.29015817 114.98129734 95.30094985 117.31193161 95.31719017 C120.58618561 95.33909042 123.85996143 95.34196162 127.13427734 95.34057617 C128.08950287 95.351362 129.04472839 95.36214783 130.02890015 95.3732605 C139.64225727 95.3294847 149.23638816 92.89252553 157 87 C165.84114432 77.75698548 168.97185434 69.73591074 169 57 C168.42579164 47.99990811 164.41479911 42.07878783 158.75 35.3125 C149.23355667 27.31003629 140.57292682 24.68308322 128.38305664 24.77294922 C127.3384024 24.77265717 126.29374817 24.77236511 125.21743774 24.77206421 C121.78159129 24.77345202 118.34596459 24.78898752 114.91015625 24.8046875 C112.52119566 24.80841958 110.13223354 24.81126563 107.74327087 24.81326294 C101.46820825 24.82088404 95.19323881 24.84051952 88.91821289 24.8626709 C81.38242264 24.88676749 73.84660117 24.89591756 66.31078339 24.90757751 C54.87379086 24.9269447 43.43700264 24.96527812 32 25 Z " fill="#F4F4F4" transform="translate(538,54)"/>
<path d="M0 0 C14.19 0 28.38 0 43 0 C46.64583333 7.29166667 50.29166667 14.58333333 53.9375 21.875 C54.26685547 22.53226074 54.59621094 23.18952148 54.93554688 23.86669922 C56.6373164 27.26458724 58.32995488 30.6664371 60.00390625 34.078125 C63.54294912 41.26602224 67.24861674 48.28455695 71.28125 55.20800781 C73.41256599 58.89340838 75.24275036 62.58393998 76.8984375 66.5 C81.10721648 76.05183881 86.12182426 85.27819191 91 94.5 C102.31427595 115.88875001 102.31427595 115.88875001 105.9375 124.5 C108.05799154 129.42290327 110.78466963 133.99651697 113.43896484 138.64453125 C117.2222478 145.30730433 120.64298809 152.12278706 124.01611328 159 C125.66016421 162.34195166 127.33129191 165.6703112 129 169 C131.03033794 173.05520059 133.05694949 177.11212147 135.0703125 181.17578125 C135.75484224 182.55486928 136.43973352 183.93377791 137.125 185.3125 C137.45435547 185.97523926 137.78371094 186.63797852 138.12304688 187.32080078 C140.60257702 192.27862377 143.23072274 197.14026184 145.96875 201.9609375 C147 204 147 204 147 206 C134.46 206 121.92 206 109 206 C105 198 101 190 97 182 C96.34644531 180.69417969 95.69289063 179.38835937 95.01953125 178.04296875 C93.61559273 175.23577891 92.2181788 172.42543873 90.82421875 169.61328125 C90.46650391 168.89333984 90.10878906 168.17339844 89.74023438 167.43164062 C89.0588754 166.06007387 88.37908329 164.68772714 87.70117188 163.31445312 C86.81616246 161.53523462 85.90878451 159.76719294 85 158 C84.70667282 157.11605057 84.41334564 156.23210114 84.11112976 155.32136536 C81.52825577 152.4812774 80.74031106 152.60524681 77.00764465 152.39872742 C74.82518451 152.38417278 72.64243764 152.39765757 70.46020508 152.43237305 C69.26983139 152.43164291 68.0794577 152.43091278 66.85301208 152.43016052 C63.58840369 152.43304925 60.32486398 152.45813942 57.06046891 152.49303031 C53.64922106 152.52426639 50.23795266 152.52722233 46.82658386 152.53315735 C40.36660841 152.54870406 33.90705556 152.5897431 27.44726628 152.6399048 C20.09310377 152.69577304 12.73892118 152.72327831 5.38459933 152.74838197 C-9.743836 152.8006587 -24.87187576 152.88861643 -40 153 C-40.547771 154.09554199 -41.09554199 155.19108398 -41.65991211 156.31982422 C-45.99975586 164.99951172 -45.99975586 164.99951172 -47.04310608 167.0861969 C-47.85152072 168.70303908 -48.65989568 170.3199011 -49.46826172 171.93676758 C-50.22184465 173.4437653 -50.97594385 174.95050494 -51.73046875 176.45703125 C-52.69543027 178.38992339 -53.65548971 180.32526371 -54.61328125 182.26171875 C-55.19464844 183.43347656 -55.77601562 184.60523438 -56.375 185.8125 C-56.89835937 186.87082031 -57.42171875 187.92914063 -57.9609375 189.01953125 C-60.88440643 194.72645623 -63.96000098 200.35428753 -67 206 C-79.21 206 -91.42 206 -104 206 C-102.41204548 201.23613644 -100.6286166 196.94632465 -98.375 192.5 C-98.02308594 191.80003906 -97.67117188 191.10007813 -97.30859375 190.37890625 C-95.00085454 185.83734119 -92.55665373 181.40593291 -90 177 C-84.37182312 167.29057205 -79.50461766 157.2320678 -74.74365234 147.07421875 C-70.91596727 138.90759952 -66.90263682 130.87986952 -62.6628418 122.91918945 C-60.01214533 117.93967048 -57.43791569 112.93156315 -54.9375 107.875 C-52.21194781 102.3682721 -49.39245816 96.92089529 -46.5 91.5 C-42.5313043 84.05699954 -38.7268597 76.54249369 -34.98388672 68.98388672 C-33.00035336 64.98433534 -30.99824187 60.99404723 -28.99975586 57.00195312 C-27.32715349 53.65919908 -25.65897453 50.31438461 -24 46.96484375 C-20.44713201 39.8035942 -16.80502688 32.7061632 -13.01318359 25.66845703 C-9.18047789 18.52680463 -5.59396007 11.26384888 -2 4 C-1.34 2.68 -0.68 1.36 0 0 Z M21 32 C14.88224671 43.61060159 8.82029274 55.23702518 3 67 C1.35371496 70.30027099 -0.29755771 73.59804739 -1.94995117 76.89526367 C-3.64681331 80.28368143 -5.33465265 83.67601166 -7.00390625 87.078125 C-10.23838691 93.64744769 -13.56453921 100.10825269 -17.25 106.4375 C-20.92981448 112.77776975 -24.21733057 118.86932226 -26 126 C5.35 126 36.7 126 69 126 C63.74189226 114.89955032 58.48656988 103.85163043 52.953125 92.89453125 C51.74367081 90.4904932 50.55164163 88.07789117 49.35742188 85.66625977 C44.54011713 75.95877703 39.54134746 66.34469713 34.54272461 56.72973633 C30.28147523 48.52527659 26.11172606 40.28037276 22 32 C21.67 32 21.34 32 21 32 Z " fill="#F4F4F4" transform="translate(1089,54)"/>
<path d="M0 0 C60.72 0 121.44 0 184 0 C184 7.92 184 15.84 184 24 C134.17 24 84.34 24 33 24 C33 45.12 33 66.24 33 88 C70.29 88 107.58 88 146 88 C146 95.92 146 103.84 146 112 C145 113 145 113 143.14342403 113.12304783 C142.32579366 113.12212604 141.50816328 113.12120424 140.66575623 113.12025452 C139.26273758 113.12231651 139.26273758 113.12231651 137.83137512 113.12442017 C136.79703842 113.12082489 135.76270172 113.11722961 134.69702148 113.11352539 C133.61422913 113.11367142 132.53143677 113.11381744 131.41583252 113.1139679 C127.81756626 113.11326823 124.21935103 113.10547333 120.62109375 113.09765625 C118.13387582 113.09579226 115.64665752 113.09436827 113.15943909 113.09336853 C107.26978809 113.0899335 101.3801561 113.08204277 95.49051291 113.07201904 C86.95461017 113.05780572 78.4187012 113.05254737 69.88278961 113.04621124 C57.92184444 113.03649861 45.96094752 113.01734308 34 113 C34 135.77 34 158.54 34 182 C44.81652344 181.98839844 55.63304687 181.97679687 66.77734375 181.96484375 C73.60872419 181.95973734 80.44010327 181.95488235 87.27148438 181.95117188 C98.12687653 181.94522857 108.98226094 181.93822604 119.83764648 181.92456055 C127.74208712 181.91461462 135.64652151 181.90814679 143.55096823 181.90591151 C147.73894719 181.90460424 151.92690827 181.90151741 156.11488152 181.89426994 C160.05215298 181.88751116 163.98939908 181.88538275 167.9266758 181.88689232 C169.37594617 181.88661593 170.82521735 181.88460996 172.27448273 181.88079453 C174.24470414 181.87585957 176.21493898 181.87760191 178.18516541 181.87974548 C179.84301009 181.87836279 179.84301009 181.87836279 181.53434658 181.87695217 C184 182 184 182 185 183 C185 190.92 185 198.84 185 207 C123.95 207 62.9 207 0 207 C0 138.69 0 70.38 0 0 Z " fill="#F4F4F4" transform="translate(788,54)"/>
<path d="M0 0 C9.9 0 19.8 0 30 0 C30 60.06 30 120.12 30 182 C81.15 182 132.3 182 185 182 C185 190.25 185 198.5 185 207 C123.95 207 62.9 207 0 207 C0 138.69 0 70.38 0 0 Z " fill="#F4F4F4" transform="translate(1250,54)"/>
<path d="M0 0 C8.91 0 17.82 0 27 0 C27 60.39 27 120.78 27 183 C78.48 183 129.96 183 183 183 C183 190.92 183 198.84 183 207 C122.61 207 62.22 207 0 207 C0 138.69 0 70.38 0 0 Z " fill="#F4F4F4" transform="translate(19,54)"/>
<path d="M0 0 C16.0565625 -0.12375 16.0565625 -0.12375 32.4375 -0.25 C35.80122803 -0.28641602 39.16495605 -0.32283203 42.63061523 -0.36035156 C45.31493492 -0.37204072 47.99926173 -0.382232 50.68359375 -0.390625 C51.369944 -0.40107849 52.05629425 -0.41153198 52.76344299 -0.42230225 C62.10942809 -0.55737024 69.60780467 -0.00301959 77.3046875 5.7109375 C82.49598309 11.21216118 85.7355634 16.19912035 86 24 C84.78930951 30.51186926 81.89971583 36.49679297 77 41 C73.12734326 43.31963731 69.14873188 45.22772619 65 47 C68.7325894 51.86076755 72.52661068 56.65613182 76.4375 61.375 C88.2560154 75.7680462 88.2560154 75.7680462 90 81 C78.56740412 82.41758939 78.56740412 82.41758939 73 81 C68.88169302 77.64893925 66.63302693 73.55778583 64 69 C62.10320979 66.4944552 60.12417284 64.08602328 58.10888672 61.67553711 C56 59 56 59 54.20532227 56.15332031 C51.11089988 51.5742101 48.83641258 48.49643111 43.36669922 47.01782227 C39.21701358 46.57460508 35.1069295 46.68241712 30.9375 46.8125 C26.008125 46.874375 21.07875 46.93625 16 47 C16 58.22 16 69.44 16 81 C10.72 81 5.44 81 0 81 C0 54.27 0 27.54 0 0 Z M16 10 C16 18.58 16 27.16 16 36 C22.12055431 36.09211537 28.23867835 36.17166833 34.359375 36.21972656 C36.43888525 36.23977159 38.51833963 36.26701513 40.59765625 36.30175781 C43.59649487 36.35058948 46.59458463 36.37304028 49.59375 36.390625 C50.51490601 36.41127014 51.43606201 36.43191528 52.38513184 36.45318604 C58.37400929 36.45524143 63.03645858 35.50543433 68 32 C70.56836423 28.14745366 70.70847091 23.51650207 70 19 C67.54765271 14.00098437 65.14044868 11.98907385 60 10 C56.58999598 9.60688899 53.2177526 9.65003655 49.7890625 9.70703125 C48.33685806 9.71339851 48.33685806 9.71339851 46.85531616 9.71989441 C43.77825527 9.73662044 40.70186128 9.77426169 37.625 9.8125 C35.53256158 9.82755468 33.44011283 9.84124171 31.34765625 9.85351562 C26.2313103 9.88394591 21.11639726 9.94267937 16 10 Z " fill="#F4F4F4" transform="translate(713,314)"/>
<path d="M0 0 C0.82854492 0.13994385 1.65708984 0.2798877 2.51074219 0.42407227 C9.97122851 1.93285865 15.25073671 5.77495532 20.5 11.1875 C23.23191158 15.40954517 23.33578757 18.38732653 23.5625 23.375 C18.9425 23.705 14.3225 24.035 9.5625 24.375 C8.390625 22.12890625 7.21875 19.8828125 6.046875 17.63671875 C3.57473947 13.86996488 1.19237614 12.58133874 -3.0625 11.1875 C-14.08349344 9.00893153 -28.4475653 8.66605506 -38.5 14 C-41.36239816 17.50874613 -40.8074954 19.93505526 -40.4375 24.375 C-30.39043451 30.35595898 -19.75891727 31.83389821 -8.3125 33.3125 C3.5423073 34.95825767 16.44565491 38.17140009 24.625 47.5625 C27.87481706 52.27997638 28.49507069 56.78837372 27.5625 62.375 C22.97678216 72.02347344 15.38088336 76.85903811 5.5625 80.375 C-1.1882506 82.13468483 -7.72814631 82.73298173 -14.6875 82.6875 C-15.60136475 82.68186035 -16.51522949 82.6762207 -17.45678711 82.67041016 C-30.88881679 82.43158699 -43.9415063 79.77782795 -54.4375 70.8125 C-55.0975 70.008125 -55.7575 69.20375 -56.4375 68.375 C-57.18 67.6325 -57.9225 66.89 -58.6875 66.125 C-61.10003378 62.33387549 -61.24494558 58.79412386 -61.4375 54.375 C-56.38747778 53.33909801 -51.56333611 53.27248328 -46.4375 53.375 C-46.19257812 54.03886719 -45.94765625 54.70273437 -45.6953125 55.38671875 C-43.01707975 61.7128892 -40.51816272 64.64752813 -34.23046875 67.4375 C-27.53163088 69.68606096 -21.59755211 70.7387627 -14.5625 70.6875 C-13.77456055 70.68331055 -12.98662109 70.67912109 -12.17480469 70.67480469 C-3.52752058 70.50734595 3.7069149 68.82431123 10.5625 63.375 C11.70602916 61.08794169 11.66584439 59.78235238 11.625 57.25 C11.604375 55.97125 11.58375 54.6925 11.5625 53.375 C9.89644848 52.70679752 8.22964597 52.04046717 6.5625 51.375 C5.76972656 51.05660156 4.97695313 50.73820312 4.16015625 50.41015625 C-5.45893258 46.71962756 -15.2270029 44.73486415 -25.4375 43.5 C-37.1067485 41.87599684 -47.60403807 38.58114802 -55.4375 29.375 C-57.78550383 25.50192616 -57.99569675 21.81481111 -57.4375 17.375 C-54.74119413 10.49942003 -50.82646436 5.90090443 -44.3046875 2.51171875 C-30.19131492 -3.08363741 -14.68284098 -2.65819363 0 0 Z " fill="#F4F4F4" transform="translate(949.4375,313.625)"/>
<path d="M0 0 C1.39702148 0.04737305 1.39702148 0.04737305 2.82226562 0.09570312 C5.11392852 0.17796795 7.39907286 0.29278362 9.6875 0.4375 C10.20957031 1.37207031 10.73164062 2.30664062 11.26953125 3.26953125 C16.04122577 11.79127838 20.89171429 20.26291661 25.80322266 28.70483398 C28.22401679 32.87568723 30.5975982 37.06093741 32.875 41.3125 C35.03934258 45.34633269 37.38888689 49.24323319 39.8125 53.125 C42.31511478 57.14148383 44.59838231 61.11856924 46.61328125 65.39453125 C48.56370074 69.10387451 50.96287158 72.54304296 53.296875 76.01953125 C54.6875 78.4375 54.6875 78.4375 54.6875 81.4375 C49.0775 81.4375 43.4675 81.4375 37.6875 81.4375 C36.22529721 78.87714079 34.76764847 76.3143644 33.3125 73.75 C32.9 73.02876953 32.4875 72.30753906 32.0625 71.56445312 C31.46308594 70.50581055 31.46308594 70.50581055 30.8515625 69.42578125 C30.48498535 68.78165283 30.1184082 68.13752441 29.74072266 67.47387695 C28.56615943 65.20289136 27.63705339 62.81138347 26.6875 60.4375 C-0.5375 60.9325 -0.5375 60.9325 -28.3125 61.4375 C-32.98999771 69.99082069 -32.98999771 69.99082069 -37.25 78.75 C-39.66207212 81.46431168 -40.30228585 81.43640636 -44.1796875 81.8515625 C-48.24362576 81.94346174 -52.2601866 81.737495 -56.3125 81.4375 C-54.72754943 77.19209669 -52.70387151 73.23442218 -50.5625 69.25 C-50.07910156 68.33637695 -50.07910156 68.33637695 -49.5859375 67.40429688 C-47.1547166 62.85753687 -44.53287099 58.44391076 -41.86523438 54.0324707 C-39.31582936 49.77183769 -36.88322514 45.44568736 -34.4375 41.125 C-30.42668852 34.06176756 -26.29481989 27.11471234 -21.984375 20.23046875 C-19.97015383 16.86558992 -18.244338 13.41595678 -16.61328125 9.8515625 C-16.18402344 9.05492187 -15.75476563 8.25828125 -15.3125 7.4375 C-14.87006958 6.53197388 -14.87006958 6.53197388 -14.41870117 5.6081543 C-10.81795122 -0.68183376 -6.80053962 -0.43734919 0 0 Z M-1.3125 13.4375 C-5.56629167 20.17179054 -9.63540143 26.82437807 -13.08203125 34.01171875 C-14.904822 37.60522052 -17.03360199 40.99603013 -19.17578125 44.40625 C-20.47528261 46.34043593 -20.47528261 46.34043593 -20.3125 48.4375 C-7.4425 48.4375 5.4275 48.4375 18.6875 48.4375 C16.17351157 42.15252892 12.95898604 36.35278505 9.6875 30.4375 C9.3378418 29.80408691 8.98818359 29.17067383 8.62792969 28.51806641 C7.57142045 26.61221602 6.50621692 24.71152776 5.4375 22.8125 C4.79296875 21.66523438 4.1484375 20.51796875 3.484375 19.3359375 C2.02050998 16.97465957 0.76301578 15.24396744 -1.3125 13.4375 Z " fill="#F4F4F4" transform="translate(629.3125,313.5625)"/>
<path d="M0 0 C16.025625 -0.12375 16.025625 -0.12375 32.375 -0.25 C35.72962402 -0.28641602 39.08424805 -0.32283203 42.54052734 -0.36035156 C45.22232423 -0.37204246 47.90412826 -0.38223333 50.5859375 -0.390625 C51.26967438 -0.40107849 51.95341125 -0.41153198 52.65786743 -0.42230225 C63.03792139 -0.57285854 71.88967954 0.09973887 79.9375 7.25 C84.14780064 11.90714858 86.09479309 16.79737906 86.3125 23.0625 C85.78907257 29.65768566 84.45519534 34.46155977 79.9765625 39.359375 C73.63962036 44.61928745 65.44972748 47.13647811 57.30151367 47.11352539 C55.9506794 47.11341209 55.9506794 47.11341209 54.57255554 47.11329651 C53.13478508 47.10555458 53.13478508 47.10555458 51.66796875 47.09765625 C50.18034782 47.09553383 50.18034782 47.09553383 48.66267395 47.09336853 C45.50425157 47.08778418 42.34590085 47.07523452 39.1875 47.0625 C37.04231873 47.05748298 34.89713635 47.05292042 32.75195312 47.04882812 C27.50125247 47.03867203 22.25070616 47.01909348 17 47 C17 58.22 17 69.44 17 81 C11.39 81 5.78 81 0 81 C0 54.27 0 27.54 0 0 Z M18 10 C18 18.58 18 27.16 18 36 C24.01443063 36.06898455 30.02748072 36.12868474 36.04199219 36.16479492 C38.08663594 36.17985288 40.13124755 36.20030357 42.17578125 36.22631836 C45.11987252 36.26283311 48.06353557 36.27975651 51.0078125 36.29296875 C51.9174173 36.30845261 52.82702209 36.32393646 53.76419067 36.33988953 C60.19514891 36.34158309 64.44681135 35.28443195 69.375 30.875 C71.66040642 26.83158864 71.8922671 23.53892395 71 19 C69.26850683 15.10229835 67.47139005 12.6347314 63.50585938 10.92407227 C59.00150068 9.73681616 54.86223197 9.75078376 50.2265625 9.8046875 C48.8409462 9.80893234 48.8409462 9.80893234 47.42733765 9.81326294 C44.49309024 9.82440821 41.5591543 9.84950235 38.625 9.875 C36.62891068 9.88503711 34.63281654 9.89416168 32.63671875 9.90234375 C27.75759757 9.92262272 22.87914517 9.96178215 18 10 Z " fill="#F4F4F4" transform="translate(482,314)"/>
<path d="M0 0 C10.56 0 21.12 0 32 0 C30.62179794 4.13460617 29.41853794 7.37257854 27.42578125 11.125 C26.9265918 12.07173584 26.42740234 13.01847168 25.91308594 13.99389648 C25.38489258 14.98591064 24.85669922 15.9779248 24.3125 17 C23.21918344 19.07376102 22.12673153 21.14797813 21.03515625 23.22265625 C20.50937988 24.22055176 19.98360352 25.21844727 19.44189453 26.24658203 C16.20653629 32.42476866 13.12023209 38.67790471 10.04882812 44.93896484 C-1.52893084 68.52893084 -1.52893084 68.52893084 -5 72 C-6.78071246 72.08726223 -8.5648314 72.10699041 -10.34765625 72.09765625 C-11.42724609 72.09443359 -12.50683594 72.09121094 -13.61914062 72.08789062 C-14.75544922 72.07951172 -15.89175781 72.07113281 -17.0625 72.0625 C-18.20267578 72.05798828 -19.34285156 72.05347656 -20.51757812 72.04882812 C-23.34510351 72.03699747 -26.1725264 72.0205141 -29 72 C-28.40628929 68.66715727 -27.58986998 65.66279541 -26.328125 62.5234375 C-25.99594971 61.69336182 -25.66377441 60.86328613 -25.3215332 60.00805664 C-24.96792725 59.13914795 -24.61432129 58.27023926 -24.25 57.375 C-23.88801514 56.4770874 -23.52603027 55.5791748 -23.15307617 54.65405273 C-20.94878353 49.22223904 -18.62568273 43.86833377 -16.140625 38.55859375 C-14.83031505 35.61937108 -13.69435966 32.6373227 -12.5625 29.625 C-10.46788977 24.07230685 -8.08682196 18.71620658 -5.52734375 13.36328125 C-3.53417246 8.97422632 -1.79026236 4.47565589 0 0 Z " fill="#F4F4F4" transform="translate(176,56)"/>
<path d="M0 0 C0.70253906 0.00386719 1.40507813 0.00773437 2.12890625 0.01171875 C2.83144531 0.00785156 3.53398438 0.00398438 4.2578125 0 C9.50229247 0.01010497 9.50229247 0.01010497 10.62890625 1.13671875 C10.72784403 2.91117884 10.75689717 4.68958126 10.75830078 6.46679688 C10.76145294 7.60467651 10.7646051 8.74255615 10.76785278 9.91491699 C10.76582855 11.15342407 10.76380432 12.39193115 10.76171875 13.66796875 C10.76315384 15.56005066 10.76315384 15.56005066 10.76461792 17.49035645 C10.7653 20.16369013 10.76394154 22.83693312 10.75927734 25.51025391 C10.75358006 28.94378566 10.75685926 32.37723925 10.76284981 35.81076813 C10.76732387 39.07567118 10.76419508 42.34056468 10.76171875 45.60546875 C10.76374298 46.84397583 10.76576721 48.08248291 10.76785278 49.35852051 C10.76470062 50.49640015 10.76154846 51.63427979 10.75830078 52.80664062 C10.75750519 53.81400269 10.75670959 54.82136475 10.75588989 55.85925293 C10.62890625 58.13671875 10.62890625 58.13671875 9.62890625 59.13671875 C6.93235771 59.20991496 4.26199167 59.22914412 1.56640625 59.19921875 C0.42848633 59.19245117 0.42848633 59.19245117 -0.73242188 59.18554688 C-2.61201246 59.17372555 -4.49156274 59.15578953 -6.37109375 59.13671875 C-6.39422226 51.59173642 -6.41201144 44.04675774 -6.42290592 36.50174809 C-6.42813364 32.9986299 -6.43522925 29.4955359 -6.4465332 25.99243164 C-6.45943581 21.96891034 -6.46432287 17.94541461 -6.46875 13.921875 C-6.47649193 12.02659813 -6.47649193 12.02659813 -6.48439026 10.09303284 C-6.48446579 8.93190475 -6.48454132 7.77077667 -6.48461914 6.57446289 C-6.48795006 5.03224815 -6.48795006 5.03224815 -6.49134827 3.45887756 C-6.26249037 -0.96045228 -3.85862796 0.00743474 0 0 Z " fill="#F4F4F4" transform="translate(844.37109375,335.86328125)"/>
<path d="M0 0 C0.97484848 0.00222061 1.94969696 0.00444122 2.9540863 0.00672913 C4.05515213 0.00680466 5.15621796 0.00688019 6.29064941 0.00695801 C7.48854599 0.01211929 8.68644257 0.01728058 9.92063904 0.02259827 C11.14000656 0.02401321 12.35937408 0.02542816 13.61569214 0.02688599 C17.52856349 0.03250485 21.4413786 0.04506055 25.35423279 0.05775452 C27.99941426 0.06276709 30.64459662 0.06733041 33.28977966 0.07142639 C39.79045005 0.08248041 46.2910874 0.09923688 52.79173279 0.12025452 C52.46173279 1.11025452 52.13173279 2.10025452 51.79173279 3.12025452 C49.46515933 4.01532625 47.25014983 4.71892358 44.85423279 5.37025452 C38.63173774 7.17705865 32.61795916 9.27135746 26.60423279 11.68275452 C20.53653926 14.10341448 14.48342122 16.18580581 8.20970154 18.02259827 C3.93157644 19.39648759 -0.2203174 21.02671413 -4.39576721 22.68275452 C-20.64990312 29.12025452 -20.64990312 29.12025452 -26.20826721 29.12025452 C-26.20826721 28.46025452 -26.20826721 27.80025452 -26.20826721 27.12025452 C-25.54826721 27.12025452 -24.88826721 27.12025452 -24.20826721 27.12025452 C-23.97236877 26.56466858 -23.73647034 26.00908264 -23.49342346 25.43666077 C-21.89549201 22.5564986 -19.90326221 20.45656376 -17.64576721 18.05775452 C-13.20176101 13.25848619 -9.02885978 8.33174547 -4.92311096 3.23744202 C-2.40707299 0.13108078 -2.40707299 0.13108078 0 0 Z " fill="#F4F4F4" transform="translate(884.2082672119141,19.879745483398438)"/>
<path d="M0 0 C5.61 0 11.22 0 17 0 C17.020625 2.454375 17.04125 4.90875 17.0625 7.4375 C17.071604 8.21150146 17.08070801 8.98550293 17.09008789 9.78295898 C17.09724913 11.52221717 17.05024702 13.26145304 17 15 C16 16 16 16 12.40234375 16.09765625 C10.91402745 16.09191272 9.42573704 16.07889891 7.9375 16.0625 C5.318125 16.041875 2.69875 16.02125 0 16 C0 10.72 0 5.44 0 0 Z " fill="#F4F4F4" transform="translate(838,314)"/>
<path d="" fill="#F4F4F4" transform="translate(0,0)"/>
</svg>
